<?xml version="1.0" standalone="no"?>
<!DOCTYPE svg PUBLIC "-//W3C//DTD SVG 20010904//EN"
 "http://www.w3.org/TR/2001/REC-SVG-20010904/DTD/svg10.dtd">
<svg version="1.0" xmlns="http://www.w3.org/2000/svg"
 width="500.000000pt" height="500.000000pt" viewBox="0 0 500.000000 500.000000"
 preserveAspectRatio="xMidYMid meet">

<g transform="translate(0.000000,500.000000) scale(0.100000,-0.100000)"
fill="#000000" stroke="none">
<path d="M2520 4486 c-119 -26 -230 -103 -299 -207 -84 -126 -106 -301 -56
-443 13 -39 23 -71 22 -71 -1 -1 -129 -79 -285 -174 l-283 -172 -62 57 c-37
35 -92 72 -137 93 -74 35 -77 36 -200 36 -146 0 -199 -16 -300 -91 -117 -86
-188 -215 -197 -359 -29 -440 473 -697 816 -417 24 19 59 57 78 83 l34 47 122
-55 c67 -30 123 -56 125 -58 3 -2 -307 -576 -318 -588 -3 -4 -33 -1 -65 8 -90
23 -183 19 -273 -11 -130 -43 -219 -124 -281 -253 -36 -75 -36 -78 -36 -202
l0 -126 42 -85 c176 -355 672 -358 848 -5 19 38 35 78 35 88 0 11 5 16 13 14
24 -10 1201 -174 1209 -169 4 3 8 -19 8 -49 0 -110 53 -232 139 -318 149 -149
379 -182 564 -81 124 67 224 216 236 352 16 173 -22 293 -129 405 -34 34 -80
73 -103 85 l-43 23 38 111 c20 61 69 211 108 332 l70 221 114 5 c108 4 119 6
193 43 135 66 230 183 268 330 78 306 -162 615 -480 615 -129 0 -240 -42 -333
-125 l-52 -47 -43 28 c-24 16 -161 110 -305 208 l-261 179 20 38 c55 109 64
254 23 377 -80 243 -331 384 -584 328z m140 -491 l0 -145 -30 0 -30 0 0 138
c0 76 3 142 7 145 3 4 17 7 30 7 l23 0 0 -145z m-360 -362 l51 -48 -201 -372
-202 -371 -51 23 c-196 87 -209 94 -201 112 4 10 9 65 12 123 3 89 1 115 -18
169 -11 35 -20 64 -18 66 17 13 565 345 570 345 4 0 30 -21 58 -47z m1008
-179 c158 -108 290 -199 294 -203 4 -4 -4 -38 -17 -76 -23 -63 -25 -83 -23
-194 l2 -124 -234 -97 -234 -97 -34 56 c-138 231 -420 317 -653 200 -56 -28
-148 -109 -186 -163 l-19 -28 -80 35 c-43 19 -78 40 -76 47 3 14 381 712 391
722 3 4 26 0 51 -8 34 -12 75 -15 165 -12 112 3 125 5 186 35 37 18 86 51 110
73 24 21 50 37 57 35 8 -3 143 -93 300 -201z m-2118 -314 l0 -120 65 0 c63 0
65 -1 65 -25 0 -25 -1 -25 -90 -25 l-90 0 0 145 0 145 25 0 25 0 0 -120z
m2812 -17 c8 -10 37 -54 64 -98 l49 -80 3 98 c3 96 3 97 27 97 l25 0 0 -145 0
-145 -29 0 c-25 0 -35 11 -87 95 l-59 96 -3 -96 -3 -95 -29 0 -30 0 0 138 c0
76 3 142 7 145 12 13 50 7 65 -10z m-1234 -211 c120 -38 225 -132 281 -252 36
-79 42 -221 12 -318 -32 -105 -105 -196 -211 -259 -115 -69 -298 -71 -430 -3
-60 30 -151 119 -183 178 -72 132 -74 300 -6 434 48 94 175 196 279 224 69 19
189 17 258 -4z m881 -202 c43 -58 98 -106 169 -147 23 -14 42 -28 42 -33 0 -4
-45 -148 -100 -319 -55 -171 -100 -317 -100 -324 0 -10 -19 -12 -83 -9 -92 5
-164 -11 -250 -55 -27 -13 -53 -21 -57 -16 -3 4 -60 71 -125 148 -65 77 -127
150 -138 163 l-20 22 20 23 c72 79 113 192 113 314 l0 88 243 101 c133 55 243
100 244 100 0 -1 19 -26 42 -56z m-1572 -35 c73 -32 78 -36 75 -62 -2 -15 -4
-75 -5 -133 -1 -85 2 -115 19 -161 l21 -56 -204 -127 c-113 -70 -208 -126
-213 -124 -4 2 -34 27 -66 57 -33 30 -54 52 -48 48 6 -3 53 73 114 186 165
306 221 407 225 407 2 0 39 -16 82 -35z m214 -547 c96 -93 209 -138 345 -138
79 0 173 25 240 63 37 22 42 23 51 8 6 -10 64 -80 129 -157 66 -76 125 -147
132 -156 11 -14 8 -24 -21 -67 -20 -28 -43 -72 -53 -98 -9 -27 -21 -52 -24
-56 -4 -5 -120 8 -256 27 -137 20 -265 38 -284 41 -19 3 -176 25 -348 50 -173
25 -317 45 -322 45 -5 0 -11 -10 -13 -22 -2 -13 -5 15 -6 62 -1 52 -9 105 -20
137 l-18 52 206 130 c113 71 206 129 207 130 0 1 25 -23 55 -51z m-758 -1
c117 -43 202 -121 253 -231 121 -265 -42 -575 -326 -619 -193 -30 -379 70
-461 246 -28 61 -34 86 -37 165 -5 105 7 161 49 237 53 94 155 178 255 208 77
24 191 21 267 -6z m2160 -310 c308 -112 395 -502 162 -730 -69 -69 -141 -105
-235 -120 -194 -30 -377 69 -463 250 -30 64 -32 74 -32 183 0 112 1 117 36
190 99 203 328 301 532 227z"/>
<path d="M2575 2608 c-30 -17 -44 -40 -45 -69 0 -40 28 -67 90 -87 55 -17 74
-42 51 -65 -17 -17 -72 -10 -96 13 -22 21 -28 19 -49 -17 -12 -22 53 -53 112
-53 43 0 58 5 77 25 53 52 22 120 -67 145 -45 14 -53 19 -53 40 0 23 4 25 40
24 22 0 48 -4 57 -8 12 -5 20 -1 28 14 10 18 7 22 -24 35 -42 18 -93 19 -121
3z"/>
<path d="M1344 1835 c-44 -23 -64 -63 -64 -132 0 -99 41 -143 133 -143 46 0
80 18 98 52 9 18 8 24 -7 35 -16 12 -21 10 -39 -13 -24 -30 -76 -36 -104 -10
-40 36 -34 143 9 166 30 16 68 12 90 -10 18 -18 23 -19 41 -7 20 15 20 15 -4
42 -29 35 -105 44 -153 20z"/>
<path d="M3495 1528 c-30 -17 -44 -40 -45 -69 0 -40 28 -67 90 -87 55 -17 74
-42 51 -65 -17 -17 -72 -10 -96 13 -22 21 -28 19 -49 -17 -12 -22 53 -53 112
-53 43 0 58 5 77 25 53 52 22 120 -67 145 -45 14 -53 19 -53 40 0 23 4 25 40
24 22 0 48 -4 57 -8 12 -5 20 -1 28 14 10 18 7 22 -24 35 -42 18 -93 19 -121
3z"/>
</g>
</svg>
